<svg xmlns="http://www.w3.org/2000/svg" width="1533.364" height="385.727" viewBox="0 0 1533.364 385.727"><defs><style>.a,.g,.i{fill:none;stroke-miterlimit:10;}.a,.i{stroke:#8f8f8f;}.a{stroke-linecap:round;stroke-linejoin:round;stroke-width:4px;}.b{fill:#ff935f;}.c{fill:#fff;}.d{opacity:0.4;}.e{fill:#ff6e27;}.f{opacity:0.5;}.g{stroke:#ff6e27;}.g,.i{stroke-width:3px;}.h{fill:#14aff1;opacity:0.75;}</style></defs><g transform="translate(0 1.193)"><g transform="translate(885.069 63.248) rotate(90)"><g transform="translate(0 14.05) rotate(-9)"><g transform="translate(0 0)"><path class="a" d="M0,16.947A22.662,22.662,0,1,0,37.731,0" transform="translate(22.586 24.861)"/><path class="a" d="M11.191,0A22.76,22.76,0,0,0,0,11.671" transform="translate(24.424 21.343)"/><path class="a" d="M2.878,0A41.255,41.255,0,0,0,0,8.713" transform="translate(10.116 26.38)"/><path class="a" d="M16.707,0A35.75,35.75,0,0,0,0,11.031" transform="translate(17.95 7.594)"/><path class="a" d="M0,7.994A35.668,35.668,0,0,0,43.566,0" transform="translate(28.501 65.469)"/><path class="a" d="M23.9,0a36.275,36.275,0,0,1-1.679,5.516A45.509,45.509,0,0,1,0,30.376" transform="translate(65.912 51.879)"/><path class="a" d="M0,0A47.245,47.245,0,0,1,7.834,8.633" transform="translate(67.271 10.312)"/><path class="a" d="M0,0A46.186,46.186,0,0,1,11.991,14.629" transform="translate(73.906 6.155)"/><path class="a" d="M.523,48.522a46.117,46.117,0,0,1,.639-17.187A45.579,45.579,0,0,1,26.983,0" transform="translate(0 0)"/><path class="a" d="M51.72,22.383A45.549,45.549,0,0,1,0,0" transform="translate(5.399 63.23)"/></g></g><ellipse class="b" cx="12.79" cy="12.79" rx="12.79" ry="12.79" transform="translate(38.432 35.635)"/></g><g transform="translate(856.904 0)"><path class="c" d="M10.05,88.129c16.467-6.155,33.894-12.71,57.555-20.544,24.7-8.234,26.779-10.312,55.557-20.624,3.038-1.119,12.47-5.356,16.467-6.155C160.173,36.729,231.4,26.417,271.207,22.34c17.506-1.839,12.87.24,22.622,0,15.028-.4,77.38,2.878,93.367,4.077,5.2.4,23.5,2.478,27.978,0,0,0-2.238-6.235,0-10.312,14.309-1.2,29.1-2.718,43.166,0,.8,2.238,0,12.31,0,12.31,12.31-6.155,43.166-18.466,63.71-26.7,7.594-2.958,150.341.08,150.341.08V147.762H519.973c1.439-.16-28.138-10.072-26.7-10.312-12.31-6.155-20.544-10.312-34.453-13.509-3.757,5.835,1.6,13.509-.48,13.509-6.955,0-36.531,1.918-43.166,0,.32-1.279-.72-5.516-.64-7.354-7.115,9.832-11.751,11.191-21.1,19.665-9.113,8.234-4.8,10.392-21.423,18.546-14.788,7.274-59.634,20.544-71.944,22.622-8.473,1.439-30.456-2.078-39.09-2.078-2.078,0,2.238,17.666,1.039,28.857-.56,5.356-2.238,11.591-7.354,13.27-2.4.8-11.911,2-14.229,1.039-11.031-4.636-10.312-12.71-10.312-24.7,0-26.7-2.078-78.1,0-94.566.8-6.475,8.553-12.071,10.312-20.544-4.077,2.078-13.35,5.6-15.828,11.591-8.633,21.263-20.784,43.166-29.417,64.43-5.276,12.95-16.467,32.934-28.778,28.778-3.757-1.279-10.072-8.393-10.312-12.31-.48-10.872,6.155-16.707,10.312-26.7,5.915-14.309,27.019-59.713,32.934-74.022,4.716-11.511,12.31-8.234,20.544-16.467,4.4-4.4-18.306-.24-14.389-2.078-28.538,3.837-34.933,6.155-63.71,10.312C126.36,77.976,84.233,96.282,84.233,96.282s-61.712,26.7-71.944,22.622c-6.155-2.078-12.31-12.31-12.31-16.467C-.182,96.842,4.775,90.127,10.05,88.129ZM310.3,156l16.467-6.155,2.078-43.166L310.376,90.207l-12.31,18.466Zm-49.4-2.078L277.362,156l-12.31-39.09-4.077,8.234Z" transform="translate(0.025 -0.422)"/><g class="d" transform="translate(28.006 1.757)"><path class="e" d="M1058.269,736.3,947.956,752.048l-5.755,6.715,121.825-18.945Z" transform="translate(-825.811 -686.499)"/></g><g class="f"><path class="b" d="M580.414,79.5l32.934,26.779s-12.31,12.31-12.31,18.466,11.911,45.325,11.911,45.325-1.6,4-7.754,4-24.7-2.078-24.7-2.078l-12.31-39.09-6.155,10.312,2.078,26.7s-26.7,0-26.7,12.31,10.312,22.622,26.7,22.622c0,0,2.878,25.66-.64,32.375s-8.633,11.991-13.27,12.47-16.947-7.754-16.947-15.988c0-5.116-1.839-95.765-1.839-95.765l12.151-29.657-15.188,9.513S494.241,200.845,488.006,207s-12.31,8.234-18.466,6.155-10.871-8.074-10.632-14.309,41.648-97.924,41.648-97.924l22.3-19.345Z" transform="translate(-303.026 -16.494)"/><path class="b" d="M548.667,721.723l122.385-14.549L780.886,723.8,814.06,802.62V688.549l43.566,26.939,62.192-20.7L1077.454,674H919.818l-62.192,26.939v-12.47H814.06v10.392l-140.051-6L534.118,713.409l-9.513,3.517L429,759.773l16.307,3.517s73.862-32.854,76.34-35.412c1.439-1.439,5.356-11.831,12.47-14.549C537.475,712.13,548.667,721.723,548.667,721.723Z" transform="translate(-400.994 -672.243)"/></g></g><g transform="translate(858.326 0.307)"><path class="g" d="M339.569,19.3H302.878a3.242,3.242,0,0,0-3.277,3.277V137.368a3.242,3.242,0,0,0,3.277,3.277h36.691a3.242,3.242,0,0,0,3.277-3.277V22.577A3.292,3.292,0,0,0,339.569,19.3Z" transform="translate(114.103 -3.872)"/><path class="g" d="M167.152,23.1H62.593c-4.636,0-8.393,2.8-8.393,6.155v19.5c0,3.437,3.757,6.155,8.393,6.155H167.152" transform="translate(485.965 -4.634)"/><path class="g" d="M177.5,133.146a8.392,8.392,0,0,0,8.393-8.393V98.293A8.392,8.392,0,0,0,177.5,89.9" transform="translate(368.66 -18.036)"/><line class="g" y1="26.459" transform="translate(568.942 80.337)"/><line class="g" y1="26.459" transform="translate(562.787 80.337)"/><line class="g" y1="26.459" transform="translate(587.488 80.337)"/><line class="g" y1="26.459" transform="translate(581.333 80.337)"/><path class="g" d="M0,27.259,63.071,0H215.453" transform="translate(456.55)"/><path class="g" d="M1.3,151.8l62.032,26.7H215.714" transform="translate(455.25 -30.455)"/><line class="g" y2="147.005" transform="translate(519.621 1.039)"/><line class="g" x1="143.888" y1="6.155" transform="translate(270.855 20.544)"/><path class="g" d="M546.528,25.7c-8.553,0-15.428,7.354-15.428,16.467s6.875,16.467,15.428,16.467" transform="translate(-274.634 -5.156)"/><ellipse class="g" cx="15.428" cy="16.467" rx="15.428" ry="16.467" transform="translate(122.81 41.088)"/><path class="g" d="M589.787,104.8c-3.437,7.594.24,16.707,8.314,20.464s17.506.719,21.1-6.875" transform="translate(-393.194 -21.025)"/><path class="g" d="M519.062,58.228a16.461,16.461,0,0,0,12.71-19.5h0a16.5,16.5,0,0,0-19.5-12.71" transform="translate(-245.17 -5.149)"/><line class="g" x1="18.546" y2="9.433" transform="translate(215.298 63.151)"/><line class="g" y1="15.108" x2="27.019" transform="translate(223.532 62.991)"/><path class="g" d="M416.633,169.5a16.944,16.944,0,0,0-11.751,11.351c-2.878,8.793,1.519,18.066,9.752,20.784a15.117,15.117,0,0,0,11.351-.879" transform="translate(-52.492 -34.006)"/><path class="g" d="M577.311,267.7c1.039-9.113-5.036-17.267-13.51-18.226s-16.307,5.6-17.346,14.709" transform="translate(-317.808 -50.032)"/><path class="g" d="M401.026,200.474a15.416,15.416,0,0,0,9.752-19.5h0l-.48-1.519a15.416,15.416,0,0,0-19.5-9.752h0" transform="translate(-27.531 -33.884)"/><path class="g" d="M422,223.23c.24,0,41.008-12.23,41.008-12.23" transform="translate(-103.902 -42.331)"/><path class="g" d="M501.425,198.9a15.421,15.421,0,0,0-9.433,19.425l.48,1.519a15.465,15.465,0,0,0,18.945,9.912" transform="translate(-207.628 -39.904)"/><path class="g" d="M470.708,175.1S429.78,193.486,429.7,193.486" transform="translate(-117.758 -35.129)"/><path class="g" d="M467.574,187.9s-32.694,12.15-32.774,12.23" transform="translate(-118.701 -37.697)"/><path class="g" d="M465.074,200.8S432.38,210.952,432.3,210.952" transform="translate(-114.202 -40.285)"/><path class="g" d="M476.23,229.875a15.478,15.478,0,0,0,16.707-14.069l.16-1.6A15.478,15.478,0,0,0,479.028,197.5h0" transform="translate(-177.397 -39.623)"/><line class="g" x2="28.857" y2="6.235" transform="translate(258.464 180.899)"/><path class="g" d="M574.9,192.166l-.879-.08a15.478,15.478,0,0,0-16.707,14.069l-.16,1.6a15.478,15.478,0,0,0,14.069,16.707h0" transform="translate(-323.792 -38.526)"/><line class="g" x1="22.622" y1="2.078" transform="translate(262.621 160.355)"/><path class="g" d="M616.468,116.621a15.425,15.425,0,0,0-7.754-20.384h0l-1.039-.48a15.425,15.425,0,0,0-20.384,7.754" transform="translate(-390.858 -18.937)"/><path class="g" d="M640.685,222.3a15.329,15.329,0,0,0,8.553,18.226l1.039.48a15.425,15.425,0,0,0,20.384-7.754h0" transform="translate(-485.9 -44.598)"/><path class="g" d="M833.585,122a15.329,15.329,0,0,0,8.553,18.226l1.039.48a15.425,15.425,0,0,0,20.384-7.754h0" transform="translate(-833 -24.476)"/><line class="g" x1="30.456" y2="79.858" transform="translate(165.976 84.654)"/><line class="g" y1="39.09" x2="28.857" transform="translate(258.464 71.944)"/><path class="g" d="M550.313,141.5a15.422,15.422,0,0,0,7.115,18.785l.8.4a15.425,15.425,0,0,0,20.944-6.155h0" transform="translate(-321.905 -28.388)"/><path class="g" d="M585.159,138.9a10.444,10.444,0,0,0-.959,2.158" transform="translate(-355.713 -27.867)"/><line class="g" x1="16.467" y2="35.013" transform="translate(237.92 63.71)"/><path class="g" d="M546.9,233.1" transform="translate(-287.636 -46.765)"/><path class="g" d="M546.5,271.3a15.319,15.319,0,0,0,15.588,15.188h0A15.319,15.319,0,0,0,577.273,270.9" transform="translate(-317.689 -54.349)"/><line class="g" x2="1.359" y2="19.345" transform="translate(234.563 178.021)"/><line class="g" x2="1.839" y2="27.499" transform="translate(231.765 135.734)"/><line class="g" x2="0.32" y2="10.951" transform="translate(243.756 184.416)"/><line class="g" x2="0.56" y2="17.187" transform="translate(242.077 137.733)"/><path class="g" d="M578.779,142.387A15.319,15.319,0,0,0,563.191,127.2h0A15.319,15.319,0,0,0,548,142.787h0" transform="translate(-320.394 -25.519)"/><line class="g" y1="20.384" x2="1.359" transform="translate(255.107 133.656)"/><line class="g" y1="9.273" x2="0.64" transform="translate(252.309 186.095)"/><line class="g" x1="35.013" y2="35.013" transform="translate(377.731 129.499)"/><g transform="translate(263.996 87.888)"><path class="g" d="M0,25.262a17.706,17.706,0,0,0,3.2,3.277l1.279.959A15.434,15.434,0,0,0,26.06,26.381L44.365,2" transform="translate(0.799 -0.401)"/><path class="g" d="M30.8,66.508,16.248,11.431A15.5,15.5,0,0,0,1.3,0" transform="translate(13.329)"/><line class="g" x2="11.111" y2="41.727" transform="translate(0 26.859)"/></g><line class="g" y2="115.11" transform="translate(509.309 16.467)"/><path class="g" d="M259.8,165.9" transform="translate(228.965 -33.283)"/><line class="g" y2="37.011" transform="translate(488.765 84.254)"/><line class="g" y2="21.823" transform="translate(488.765 53.318)"/><line class="g" y2="23.022" transform="translate(488.765 26.22)"/><line class="g" y2="78.179" transform="translate(499.077 48.282)"/><line class="g" y1="54.757" transform="translate(478.533 35.972)"/><line class="g" y1="15.188" transform="translate(478.533 98.963)"/><line class="g" y1="9.912" transform="translate(468.221 44.206)"/><line class="g" y1="24.461" transform="translate(468.221 58.035)"/><line class="g" y1="15.188" transform="translate(468.221 90.729)"/><line class="g" y2="14.469" transform="translate(499.077 23.502)"/><ellipse class="g" cx="7.194" cy="7.194" rx="7.194" ry="7.194" transform="translate(266.698 30.856)"/><ellipse class="g" cx="7.194" cy="7.194" rx="7.194" ry="7.194" transform="translate(385.965 37.011)"/><ellipse class="g" cx="3.118" cy="3.118" rx="3.118" ry="3.118" transform="translate(390.042 41.088)"/><ellipse class="g" cx="3.118" cy="3.118" rx="3.118" ry="3.118" transform="translate(433.208 22.622)"/><g transform="translate(651.184 23.602)"><ellipse class="g" cx="3.118" cy="3.118" rx="3.118" ry="3.118" transform="translate(0 14.389)"/><ellipse class="g" cx="3.118" cy="3.118" rx="3.118" ry="3.118" transform="translate(0 0)"/></g><ellipse class="g" cx="3.118" cy="3.118" rx="3.118" ry="3.118" transform="translate(433.208 123.344)"/><ellipse class="g" cx="3.118" cy="3.118" rx="3.118" ry="3.118" transform="translate(390.042 82.176)"/><ellipse class="g" cx="3.118" cy="3.118" rx="3.118" ry="3.118" transform="translate(390.042 61.632)"/><ellipse class="g" cx="3.118" cy="3.118" rx="3.118" ry="3.118" transform="translate(390.042 102.8)"/><ellipse class="g" cx="7.194" cy="7.194" rx="7.194" ry="7.194" transform="translate(385.965 57.555)"/><ellipse class="g" cx="7.194" cy="7.194" rx="7.194" ry="7.194" transform="translate(385.965 78.099)"/><ellipse class="g" cx="7.194" cy="7.194" rx="7.194" ry="7.194" transform="translate(385.965 98.723)"/><ellipse class="g" cx="7.194" cy="7.194" rx="7.194" ry="7.194" transform="translate(359.266 145.966)"/><ellipse class="g" cx="7.194" cy="7.194" rx="7.194" ry="7.194" transform="translate(293.477 166.51)"/><ellipse class="g" cx="7.194" cy="7.194" rx="7.194" ry="7.194" transform="translate(242.077 160.355)"/><ellipse class="g" cx="7.194" cy="7.194" rx="7.194" ry="7.194" transform="translate(237.92 111.033)"/><ellipse class="g" cx="7.194" cy="7.194" rx="7.194" ry="7.194" transform="translate(205.066 82.256)"/><ellipse class="g" cx="7.194" cy="7.194" rx="7.194" ry="7.194" transform="translate(237.92 209.756)"/><ellipse class="g" cx="7.194" cy="7.194" rx="7.194" ry="7.194" transform="translate(131.044 51.4)"/><ellipse class="g" cx="7.194" cy="7.194" rx="7.194" ry="7.194" transform="translate(163.898 174.744)"/><ellipse class="g" cx="7.194" cy="7.194" rx="7.194" ry="7.194" transform="translate(270.855 96.645)"/><ellipse class="g" cx="7.194" cy="7.194" rx="7.194" ry="7.194" transform="translate(11.777 92.488)"/><line class="g" x1="104.878" y2="16.467" transform="translate(151.588 28.778)"/><line class="g" x1="104.878" y2="12.39" transform="translate(155.664 49.322)"/><line class="g" x1="98.723" y2="14.389" transform="translate(155.664 39.09)"/><path class="g" d="M463,82.312,580.189,72l55.477,47.323" transform="translate(-309.334 -14.445)"/><line class="g" x1="102.8" y2="34.933" transform="translate(30.242 74.022)"/><line class="g" x1="94.566" y2="39.09" transform="translate(28.244 49.322)"/><line class="g" x1="90.489" y2="34.933" transform="translate(30.242 59.634)"/><line class="g" x1="92.568" y2="32.854" transform="translate(32.321 67.867)"/><line class="g" x1="24.701" y2="59.634" transform="translate(174.21 104.878)"/><line class="g" x1="32.934" y2="65.789" transform="translate(184.442 106.957)"/><line class="g" x1="26.699" y2="57.555" transform="translate(180.365 108.955)"/><line class="g" x1="16.387" y2="32.934" transform="translate(250.311 63.71)"/><line class="g" x1="18.466" y2="30.776" transform="translate(256.466 69.945)"/><line class="g" x1="20.544" y1="2.078" transform="translate(260.543 166.51)"/><line class="g" x1="24.701" y1="4.157" transform="translate(260.543 174.744)"/><line class="g" x1="51.4" transform="translate(334.565 43.166)"/><line class="g" x1="41.088" transform="translate(343.838 63.71)"/><line class="g" x1="86.333" transform="translate(557.671 39.09)"/><line class="g" x1="86.413" transform="translate(553.514 28.778)"/><line class="g" x1="65.789" transform="translate(320.176 86.333)"/><line class="g" x1="20.544" transform="translate(364.382 106.957)"/><path class="g" d="M100.3,167.2h96.645v14.389" transform="translate(419.321 -33.544)"/><path class="g" d="M192.254,172.3l-6.155,6.155-8.234-6.155-8.234,6.155-6.155-6.155-8.234,6.155-6.155-6.155-8.234,6.155L134.7,172.3l-6.155,6.155-6.155-6.155-8.234,6.155L108,172.3" transform="translate(417.856 -34.567)"/><path class="g" d="M320.724,41.2l3.517,3.517a4.376,4.376,0,0,1,.4,5.676l-1.918,2.558a4.2,4.2,0,0,0,0,5.2l1.918,2.558a4.369,4.369,0,0,1-.4,5.676l-.8.8a4.376,4.376,0,0,0-.4,5.676l1.6,2.158a4.369,4.369,0,0,1-.4,5.676l-.8.8a4.376,4.376,0,0,0-.4,5.676l1.6,2.158a4.369,4.369,0,0,1-.4,5.676l-.4.4a4.391,4.391,0,0,0,0,6.155h0a4.391,4.391,0,0,1,0,6.155l-.4.4a4.376,4.376,0,0,0-.4,5.676l1.6,2.158a4.369,4.369,0,0,1-.4,5.676l-3.517,3.517" transform="translate(114.562 -8.266)"/><line class="g" x2="14.389" y2="6.155" transform="translate(451.754 16.467)"/><line class="g" y1="10.312" x2="12.31" transform="translate(453.832 125.422)"/><line class="g" x1="57.555" y1="18.546" transform="translate(462.065 129.499)"/><line class="g" y1="20.544" x2="57.555" transform="translate(462.065)"/></g><g transform="translate(0 126.359)"><g transform="translate(0 3.766)"><path class="h" d="M158.421,12.55c-.4,0-.8-.08-1.119-.08a10.759,10.759,0,0,0-3.917.08c-2.238.56-3.837,2.478-5.436,4.237-12.23,13.43-29.5,16.947-47,15.428-4.237-.4-8.473-1.039-12.63-1.759C81.441,29.177,81.6,28.778,77.2,33.734c-5.756,6.475-10.472,13.589-15.988,20.3A67.491,67.491,0,0,1,11.9,78.259c-2.8.08-5.835.08-7.914,1.839-4,3.357-1.839,9.513-1.039,13.749.4,2.078,1.279,12.55-2.958,12.31a36.9,36.9,0,0,1,10.552,2.078,68.567,68.567,0,0,0,13.19,3.038c3.517.48,7.274-.16,10.632.879-3.837-1.2-10.392-3.677-13.03-6.875-2.8-3.277.24-7.754.959-11.351.24-1.279.959-14.868-.8-14.709,6.555-.48,12.71-2.638,18.705-5.2,2.318-.959,5.036-1.6,7.194-2.8,2.558-1.439,4.556-4,7.035-5.6,1.679-1.119,3.517-2.158,5.2-3.2,6.715-4.237,11.751-9.832,17.346-15.348.8-.8,8.553-8.553,7.514-9.033,6.155,2.958,14.389,1.039,21.024,1.519,9.832.639,18.546.639,27.9-3.118,8.234-3.517,15.828-8.873,22.782-14.788A8.307,8.307,0,0,1,158.1,20.3c3.677-1.519,7.434-.56,11.191-.24a84.7,84.7,0,0,0,13.509-.08,112.054,112.054,0,0,0,27.1-5.2c3.2-1.039,7.354-2.638,9.912-4.876a8.963,8.963,0,0,0,2.718-5.036c.16-.8-1.279-4.876-1.279-4.876-2.238,4.4-9.113,7.994-13.749,9.672-5.116,1.919-10.792,2.158-16.227,2.318C180.164,12.23,169.372,13.589,158.421,12.55Z" transform="translate(588.678)"/><path class="h" d="M346.783,115.255c-2.4-.8-5.036-.16-7.514-.48-11.991-1.359-18.146-15.028-31.176-13.989,4.956,3.677,7.914,9.273,11.191,14.389s7.274,10.392,13.11,12.39a20.388,20.388,0,0,0,5.356.959,33.3,33.3,0,0,0,9.752-.719C351.259,127.165,350.54,116.614,346.783,115.255Z" transform="translate(214.94 -20.209)"/><path class="h" d="M139.158,136.079a8.48,8.48,0,0,1,1.679,4.237c.32,3.437-1.439,6.635-3.277,9.513a96.446,96.446,0,0,1-12.151,15.188,25.545,25.545,0,0,0,17.426-16.707c1.6-4.956.959-11.431-3.6-13.909a5.525,5.525,0,0,1-.32,6.475" transform="translate(567.332 -26.964)"/><path class="h" d="M199.21,223.926c3.917,18.705-8.473,37.171-3.757,55.477-.32-1.359-2.078-2.958-2.718-4.317a43.088,43.088,0,0,1-1.759-5.436,47.985,47.985,0,0,1-2.8-10.712c-.56-5.036.32-10.072,1.039-15.028.719-4.716,2.318-8.633-.56-12.87-2.958-4.317-7.674-7.035-10.872-11.111a63.565,63.565,0,0,1-10.072-20.144,83.987,83.987,0,0,1-3.2-11.671c-.4-2.238-1.6-4.876-1.359-7.194.08-.56,7.914-.719,8.633-.719,3.2,0,5.2.8,7.994,1.839-.4,5.116,1.6,10.152,4.237,14.469,2.878,4.8,6.315,9.513,9.513,14.149A39.246,39.246,0,0,1,199.21,223.926Z" transform="translate(480.82 -36.152)"/><path class="h" d="M253.359,216.929a19.352,19.352,0,0,1,4.157,1.839,18.689,18.689,0,0,1,4.157,3.357c5.036,5.356,5.2,12.31,6.235,19.345,1.6,11.191,1.039,22.382,3.677,33.494-4.876-3.517-7.754-9.433-8.553-15.268-.48-3.917-.16-7.994-.8-11.911-1.039-6.4-4.876-13.03-11.111-15.188-7.674-2.638-15.908-2.558-23.742-4.876a37.647,37.647,0,0,1-14.469-8.393,37.214,37.214,0,0,0-6.235-4.237c-1.119-.719-4.8-4.876-5.676-4.876,5.036.16,8.873-5.915,13.749-5.036a11.181,11.181,0,0,1,3.837,1.759,102.819,102.819,0,0,0,9.113,5.2C235.773,215.89,245.206,214.371,253.359,216.929Z" transform="translate(378.948 -41.146)"/><path class="h" d="M190,219.648c.719-4.556,396.011-107.756,389.856-118.148a161.275,161.275,0,0,0,51.88,54.038c6.955,4.476,14.629,8.553,22.942,8.793,15.108.48,28.857-14.149,27.5-29.177,6.475,10.472,20.784,11.671,31.975,16.627,7.354,3.277,13.749,8.473,21.183,11.591,11.511,4.876,24.541,4.317,37.091,3.757,8.633-.4,17.426-.8,25.98-2.558,8.154-1.759,15.268-6.715,23.182-8.473,8.074-1.759,23.582-.639,27.738,7.914-11.751.639-21.663-.719-32.695,5.276-3.038,1.6-5.915,3.6-8.953,5.276-4.317,2.318-9.193,3.2-13.43,5.436a91.375,91.375,0,0,1-12.71,5.835,114.792,114.792,0,0,1-31.975,6,74.149,74.149,0,0,1-12.63-.4c-5.915-.719-11.831-2.478-17.826-1.919-5.915.56-6.475,6.4-10.632,10.232-8.713,7.994-20.144,11.111-31.975,10.951,28.138,7.834,58.035-5.036,87.372-4.077,15.188.48,39.729,4.477,47.243,20.064-14.708-7.754-32.455-9.433-46.2-6.955-18.226,3.2-45.245,7.194-63.71,7.274a89.8,89.8,0,0,1-47.563-13.11c-13.509-8.234-26.859-17.107-38.29-28.058-10.392-9.912-20.624-16.947-35.013-19.984a271.577,271.577,0,0,0-61.792-5.6c-9.353.24-41.967,9.832-49.8,10.632-9.992.959-75.141,14.868-98.4,18.546-2.078.32-4.556.56-6.075-.959C362.746,186.794,189.681,221.646,190,219.648Z" transform="translate(-190 -20.363)"/></g><g transform="translate(4.968 0)"><path class="i" d="M.028,35.656S424.577,58.279,450.477,58.279s84.015-22.622,96.885-22.622,132.457-30.7,148.6-33.894S804.2.164,805.8,3.361c3.2,6.475-1.6,9.672-8.074,14.549s-19.265,6.475-29.1,6.475H741.21s-17.746,14.709-29.1,17.746c-17.746,4.876-43.646,0-43.646,0S637.771,80.9,605.476,84.1c0,0,0,16.147-3.2,21.024" transform="translate(-0.028 -0.02)"/><path class="i" d="M141.689,102.4a64.121,64.121,0,0,1,12.95,14.549c6.475,9.672,12.95,16.147,17.746,16.147s29.1-3.2,38.77-1.6,35.572,6.475,43.646,6.475,38.77-9.672,38.77-9.672,35.572-6.475,38.77,6.475-4,23.821-14.549,29.1c-19.345,9.672-37.171,3.2-53.318,4.876-13.27,1.359-56.516,27.5-82.416,27.5-25.82,0-56.516-6.475-56.516-6.475" transform="translate(373.349 -20.56)"/><path class="i" d="M185.112,188.518s12.95,19.345,9.672,30.7-6.475,27.5-4.876,37.171,4.876,35.572,0,37.171-21.024-4.876-24.221-16.147-1.6-27.5,0-33.894c1.6-6.475-8.553-11.991-12.95-17.746-4.876-6.475-16.147-27.5-14.549-40.369" transform="translate(501.152 -37.211)"/><path class="i" d="M179.1,219.6s17.746,16.147,29.1,16.147,24.221,8.154,25.82,11.351,3.2,29.1,8.074,32.295,11.271,22.622,21.024,21.024" transform="translate(400.528 -44.073)"/><path class="i" d="M850.794,250.433s-21.024-14.549-46.844-12.95-53.8,9.273-64.589,9.672c-38.77,1.6-87.212-32.535-96.885-45.245-21.024-27.5-108.236-24.221-129.179-16.147s-285.7,51.72-285.7,51.72" transform="translate(-225.921 -36.136)"/></g></g></g></svg>