<?xml version="1.0" encoding="utf-8"?>
<!-- Generator: Adobe Illustrator 24.3.0, SVG Export Plug-In . SVG Version: 6.00 Build 0)  -->
<svg version="1.1" id="Layer_1" xmlns="http://www.w3.org/2000/svg" xmlns:xlink="http://www.w3.org/1999/xlink" x="0px" y="0px"
	 width="289px" height="68px" viewBox="0 0 289 68" style="enable-background:new 0 0 289 68;" xml:space="preserve">
<style type="text/css">
	.st0{fill:#666666;}
	.st1{fill:#8FD163;}
	.st2{fill:#4FC4F7;}
	.st3{fill:#FC7500;}
</style>
<g>
	<g>
		<path class="st0" d="M82.5,34.5c0-1.9-0.5-3.4-1.6-4.5c-1.1-1.1-2.6-1.6-4.5-1.6c-2.4,0-4.4,0.8-6.2,2.4v20.3
			c0,0.5-0.2,0.9-0.5,1.3c-0.4,0.4-0.8,0.5-1.3,0.5c-0.5,0-0.9-0.2-1.3-0.5c-0.4-0.4-0.5-0.8-0.5-1.3V16.2c0-0.5,0.2-0.9,0.5-1.3
			c0.4-0.4,0.8-0.5,1.3-0.5c0.5,0,0.9,0.2,1.3,0.5c0.4,0.4,0.5,0.8,0.5,1.3v10.5c0.9-0.5,1.9-0.9,2.9-1.2c1-0.3,2.1-0.4,3.2-0.4
			c1.5,0,2.8,0.2,4,0.7c1.2,0.5,2.2,1.1,3.1,2c0.9,0.9,1.5,1.9,2,3.1c0.5,1.2,0.7,2.5,0.7,4v16.3c0,0.5-0.2,0.9-0.5,1.3
			c-0.4,0.4-0.8,0.5-1.3,0.5c-0.5,0-0.9-0.2-1.3-0.5c-0.4-0.4-0.5-0.8-0.5-1.3V34.5z"/>
		<path class="st0" d="M94.7,26.8c0-0.5,0.2-0.9,0.5-1.3c0.4-0.4,0.8-0.5,1.3-0.5c0.5,0,0.9,0.2,1.3,0.5c0.4,0.4,0.5,0.8,0.5,1.3
			v24.2c0,0.5-0.2,0.9-0.5,1.3c-0.4,0.4-0.8,0.5-1.3,0.5c-0.5,0-0.9-0.2-1.3-0.5c-0.4-0.4-0.5-0.8-0.5-1.3V26.8z"/>
		<path class="st0" d="M122.8,51c-0.9,0.6-1.9,1.1-2.9,1.4c-1,0.3-2.1,0.5-3.2,0.5c-1.5,0-2.8-0.2-4-0.7c-1.2-0.5-2.2-1.1-3.1-2
			c-0.9-0.9-1.5-1.9-2-3.1c-0.5-1.2-0.7-2.5-0.7-4v-8.3c0-1.5,0.2-2.8,0.7-4c0.5-1.2,1.1-2.2,2-3.1c0.9-0.9,1.9-1.5,3.1-2
			c1.2-0.5,2.5-0.7,4-0.7c1.4,0,2.8,0.1,4.1,0.3c1.4,0.2,2.7,0.6,3.9,1c0.5,0.2,0.9,0.5,1.2,0.9c0.3,0.4,0.5,0.9,0.5,1.4v25.8
			c0,1.5-0.2,2.8-0.7,4c-0.5,1.2-1.1,2.2-2,3.1c-0.9,0.9-1.9,1.5-3.1,2c-1.2,0.5-2.5,0.7-4,0.7c-1.3,0-2.6-0.1-3.8-0.4
			c-1.2-0.3-2.4-0.7-3.6-1.2c-0.7-0.3-1.1-0.8-1.1-1.6c0-0.5,0.2-0.9,0.5-1.3c0.3-0.3,0.8-0.5,1.3-0.5c0.2,0,0.4,0.1,0.7,0.2
			c0.9,0.4,1.9,0.7,2.9,1c1,0.3,2.1,0.4,3.1,0.4c1.9,0,3.4-0.6,4.5-1.8s1.6-2.7,1.6-4.7V51z M122.8,29.3c-2-0.6-4-0.9-6.1-0.9
			c-1.9,0-3.4,0.5-4.5,1.6c-1.1,1.1-1.6,2.6-1.6,4.5v8.8c0,1.9,0.5,3.4,1.6,4.5c1.1,1.1,2.6,1.6,4.5,1.6c1.1,0,2.2-0.2,3.3-0.6
			c1.1-0.4,2-1,2.8-1.8V29.3z"/>
		<path class="st0" d="M150.3,34.5c0-1.9-0.5-3.4-1.6-4.5c-1.1-1.1-2.6-1.6-4.5-1.6c-2.4,0-4.4,0.8-6.2,2.4v20.3
			c0,0.5-0.2,0.9-0.5,1.3c-0.4,0.4-0.8,0.5-1.3,0.5c-0.5,0-0.9-0.2-1.3-0.5c-0.4-0.4-0.5-0.8-0.5-1.3V16.2c0-0.5,0.2-0.9,0.5-1.3
			c0.4-0.4,0.8-0.5,1.3-0.5c0.5,0,0.9,0.2,1.3,0.5c0.4,0.4,0.5,0.8,0.5,1.3v10.5c0.9-0.5,1.9-0.9,2.9-1.2c1-0.3,2.1-0.4,3.2-0.4
			c1.5,0,2.8,0.2,4,0.7c1.2,0.5,2.2,1.1,3.1,2c0.9,0.9,1.5,1.9,2,3.1c0.5,1.2,0.7,2.5,0.7,4v16.3c0,0.5-0.2,0.9-0.5,1.3
			c-0.4,0.4-0.8,0.5-1.3,0.5c-0.5,0-0.9-0.2-1.3-0.5c-0.4-0.4-0.5-0.8-0.5-1.3V34.5z"/>
		<path class="st0" d="M161.9,32.4c0-1.1,0.2-2.1,0.6-3c0.4-0.9,0.9-1.7,1.5-2.3c0.6-0.6,1.4-1.1,2.2-1.5c0.9-0.4,1.8-0.5,2.7-0.5
			c1.2,0,2.5,0.1,3.9,0.4c0.4,0.1,0.8,0.3,1,0.6c0.3,0.4,0.4,0.7,0.4,1.1c0,0.5-0.2,0.9-0.5,1.2c-0.4,0.3-0.8,0.5-1.3,0.5
			c-0.1,0-0.3,0-0.4-0.1c-0.1,0-0.3-0.1-0.5-0.1c-0.4-0.1-0.8-0.1-1.3-0.2c-0.4-0.1-0.8-0.1-1.3-0.1c-0.9,0-1.7,0.3-2.4,1
			c-0.7,0.7-1,1.6-1,2.8v18.8c0,0.5-0.2,0.9-0.5,1.3c-0.4,0.4-0.8,0.5-1.3,0.5c-0.5,0-0.9-0.2-1.3-0.5c-0.4-0.4-0.5-0.8-0.5-1.3
			V32.4z"/>
		<path class="st0" d="M196.7,49.2c0,0.5-0.2,1-0.5,1.4c-0.3,0.4-0.7,0.7-1.2,0.9c-1.3,0.4-2.6,0.8-3.9,1c-1.3,0.2-2.7,0.3-4.1,0.3
			c-3.2,0-5.7-0.8-7.4-2.3c-1.6-1.4-2.4-3.4-2.4-5.9c0-2.5,0.8-4.5,2.4-5.9c0.8-0.7,1.9-1.3,3.1-1.6c1.2-0.3,2.7-0.5,4.3-0.5h6.1
			v-3.4c0-1.6-0.5-2.8-1.6-3.6c-1-0.8-2.4-1.2-4.1-1.2c-1.1,0-2.1,0.2-3.1,0.5c-1,0.3-2,0.8-3,1.4c-0.3,0.2-0.6,0.3-0.9,0.3
			c-0.5,0-0.9-0.2-1.3-0.5c-0.4-0.3-0.5-0.7-0.5-1.3c0-0.7,0.3-1.2,0.9-1.6c1.2-0.8,2.5-1.3,3.9-1.7c1.4-0.3,2.7-0.5,4-0.5
			c1.2,0,2.4,0.2,3.6,0.5c1.1,0.3,2.1,0.8,3,1.5c0.9,0.7,1.5,1.5,2,2.5c0.5,1,0.7,2.2,0.7,3.6V49.2z M193.1,40H187
			c-1.4,0-2.4,0.1-3.3,0.4c-0.8,0.3-1.4,0.7-1.9,1.1c-0.4,0.5-0.7,1-0.8,1.5c-0.1,0.6-0.2,1.1-0.2,1.6c0,0.5,0.1,1.1,0.2,1.7
			c0.1,0.6,0.4,1.1,0.8,1.6c0.4,0.5,1.1,0.9,1.9,1.2c0.8,0.3,1.9,0.5,3.3,0.5c2.1,0,4.1-0.3,6.1-0.9V40z"/>
		<path class="st0" d="M214.4,52.9c-1.5,0-2.8-0.2-4-0.7c-1.2-0.5-2.2-1.1-3.1-2c-0.9-0.9-1.5-1.9-2-3.1c-0.5-1.2-0.7-2.5-0.7-4
			v-8.3c0-3,0.9-5.4,2.6-7.1c1.7-1.8,4.1-2.6,7.1-2.6c1.1,0,2.2,0.1,3.2,0.4c1,0.3,2,0.7,2.9,1.2V16.2c0-0.5,0.2-0.9,0.5-1.3
			c0.4-0.4,0.8-0.5,1.3-0.5c0.5,0,0.9,0.2,1.3,0.5c0.4,0.4,0.5,0.8,0.5,1.3v33.1c0,0.5-0.2,1-0.5,1.4c-0.3,0.4-0.7,0.7-1.2,0.9
			c-1.3,0.4-2.6,0.8-3.9,1C217.2,52.8,215.9,52.9,214.4,52.9z M208.3,43.4c0,1.9,0.5,3.4,1.6,4.5c1.1,1.1,2.6,1.6,4.5,1.6
			c2.1,0,4.2-0.3,6.2-0.9V30.5c-0.8-0.8-1.8-1.3-2.8-1.7c-1.1-0.3-2.2-0.5-3.3-0.5c-1.9,0-3.4,0.5-4.5,1.6c-1.1,1.1-1.6,2.6-1.6,4.5
			V43.4z"/>
		<path class="st0" d="M232.8,26.8c0-0.5,0.2-0.9,0.5-1.3c0.4-0.4,0.8-0.5,1.3-0.5c0.5,0,0.9,0.2,1.3,0.5c0.4,0.4,0.5,0.8,0.5,1.3
			v24.2c0,0.5-0.2,0.9-0.5,1.3c-0.4,0.4-0.8,0.5-1.3,0.5c-0.5,0-0.9-0.2-1.3-0.5c-0.4-0.4-0.5-0.8-0.5-1.3V26.8z M96.6,21.1
			c-0.8,0-1.4-0.3-2-0.8c-0.5-0.6-0.8-1.2-0.8-2c0-0.8,0.3-1.4,0.8-2c0.5-0.5,1.2-0.8,2-0.8c0.8,0,1.4,0.3,2,0.8
			c0.5,0.5,0.8,1.2,0.8,2c0,0.8-0.3,1.4-0.8,2C98,20.8,97.4,21.1,96.6,21.1z"/>
		<path class="st0" d="M260.9,26.8c0-0.5,0.2-0.9,0.5-1.3c0.4-0.4,0.8-0.5,1.3-0.5c0.5,0,0.9,0.2,1.3,0.5c0.4,0.4,0.5,0.8,0.5,1.3
			v22.4c0,0.5-0.2,1-0.5,1.4c-0.3,0.4-0.7,0.7-1.2,0.9c-1.3,0.4-2.6,0.8-4,1c-1.4,0.2-2.7,0.3-4.1,0.3c-3,0-5.4-0.9-7.2-2.6
			c-1.7-1.8-2.6-4.1-2.6-7.1V26.8c0-0.5,0.2-0.9,0.5-1.3c0.4-0.4,0.8-0.5,1.3-0.5c0.5,0,0.9,0.2,1.3,0.5c0.4,0.4,0.5,0.8,0.5,1.3
			v16.5c0,1.9,0.5,3.4,1.6,4.5c1.1,1.1,2.6,1.6,4.5,1.6c2.1,0,4.1-0.3,6.1-0.9V26.8z"/>
		<path class="st0" d="M276,39.1c-1.2-0.5-2.3-1.3-3.3-2.4c-0.9-1.1-1.4-2.5-1.4-4.4c0-1.1,0.2-2.1,0.7-3c0.5-0.9,1.1-1.7,1.9-2.3
			c0.8-0.6,1.7-1.1,2.8-1.5c1.1-0.3,2.2-0.5,3.3-0.5c1.3,0,2.5,0.1,3.6,0.4c1.1,0.2,2,0.6,3,1c0.7,0.4,1.1,0.9,1.1,1.7
			c0,0.5-0.2,0.9-0.5,1.2c-0.4,0.3-0.8,0.5-1.3,0.5c-0.2,0-0.4-0.1-0.7-0.2c-1.7-0.8-3.5-1.2-5.6-1.2c-0.5,0-1.1,0.1-1.6,0.2
			c-0.5,0.1-1,0.4-1.5,0.6c-0.4,0.3-0.8,0.7-1.1,1.2c-0.3,0.5-0.4,1.1-0.4,1.7c0,1.1,0.3,1.9,0.9,2.5c0.6,0.6,1.2,1,1.8,1.2l5,2
			c1.6,0.6,2.9,1.6,3.9,2.8c1,1.2,1.5,2.7,1.5,4.3c0,1.1-0.2,2.1-0.6,3.1c-0.4,1-1,1.8-1.8,2.5c-0.8,0.7-1.7,1.3-2.7,1.7
			c-1.1,0.4-2.2,0.6-3.4,0.6c-1.4,0-2.7-0.1-3.8-0.4c-1.1-0.3-2.2-0.7-3.3-1.1c-0.7-0.3-1.1-0.9-1.1-1.7c0-0.5,0.2-0.9,0.5-1.2
			c0.3-0.3,0.8-0.5,1.3-0.5c0.1,0,0.3,0,0.4,0.1c0.1,0,0.2,0.1,0.4,0.2c0.9,0.4,1.8,0.7,2.7,1c0.9,0.3,2,0.4,3,0.4
			c1.2,0,2.4-0.3,3.3-1c1-0.7,1.4-1.7,1.4-2.9c0-1.1-0.3-2-0.8-2.7c-0.6-0.6-1.4-1.2-2.5-1.7L276,39.1z"/>
	</g>
	<g>
		<path id="Path_302_3_" class="st1" d="M43.7,56.8c-6.1-0.2-12-2.4-16.8-6.2c9.1-2,16.8-7.8,21.1-16c1.5,3.5,2.3,7.3,2.3,11.1
			c0,2-0.2,3.9-0.6,5.9l-0.6,2.8c-1,0.9-2.1,1.7-3.2,2.5L43.7,56.8z"/>
		<path id="Path_303_3_" class="st2" d="M29.3,62.2c-2.4,0-4.7-0.3-7-0.9C11.1,58.5,2.6,49.2,1,37.7c0.2-0.4,0.4-0.9,0.8-1.9
			c0.1-0.5,0.3-1,0.6-1.5C4.8,28,9.8,23,16.1,20.5c-1.7,3.5-2.5,7.4-2.5,11.3c0,14.3,10.8,26.1,25.5,28.7
			C36,61.7,32.7,62.3,29.3,62.2z"/>
		<path id="Path_304_3_" class="st3" d="M54.4,47.9v-2.3c0-5.9-1.5-11.7-4.5-16.8C44.8,20,35.4,14.5,25.2,14.5
			c-1.8,0-3.7,0.2-5.5,0.6C12.4,16.5,6,20.7,1.8,26.7c0.6-1.9,1.1-3.8,1.9-5.7v-0.2c3-7.7,10.2-17,25.9-17.2h0.4
			c16,0.1,28.9,12.9,29.1,28.9C58.8,38,57.2,43.3,54.4,47.9z"/>
	</g>
	<path class="st3" d="M234.4,21.1c-0.8,0-1.4-0.3-2-0.8c-0.5-0.6-0.8-1.2-0.8-2c0-0.8,0.3-1.4,0.8-2c0.5-0.5,1.2-0.8,2-0.8
		c0.8,0,1.4,0.3,2,0.8c0.5,0.5,0.8,1.2,0.8,2c0,0.8-0.3,1.4-0.8,2C235.8,20.8,235.2,21.1,234.4,21.1z"/>
</g>
<g>
</g>
<g>
</g>
<g>
</g>
<g>
</g>
<g>
</g>
<g>
</g>
<g>
</g>
<g>
</g>
<g>
</g>
<g>
</g>
<g>
</g>
<g>
</g>
<g>
</g>
<g>
</g>
<g>
</g>
</svg>
